# xmcd
#
# Track frame offsets: 
#        150
#        15054
#        28634
#        42599
#        67574
#
# Disc length: 1100 seconds
#
# Revision: 4
# Processed by: cddbd v1.5.2PL0 Copyright (c) Steve Scherf et al.
# Submitted via: ExactAudioCopy v0.99pb5
#
DISCID=2b044a05
DTITLE=Cascada - Everytime We Touch
DYEAR=2007
DGENRE=Eurotrance
TTITLE0=Everytime We Touch (Original Radio Edit)
TTITLE1=Everytime We Touch (2-4 Grooves Radio Mix)
TTITLE2=Everytime We Touch (Rocco vs. Bass T. Radio Edit)
TTITLE3=Everytime We Touch (Original Mix)
TTITLE4=Everytime We Touch (Ballad Version)
EXTD=YEAR: 2007 ID3G: 3
EXTT0=
EXTT1=
EXTT2=
EXTT3=
EXTT4=
PLAYORDER=
